<svg id="svg" version="1.1" width="100%" height="auto" viewBox="0 0 400 150" preserveAspectRatio="none" xmlns="http://www.w3.org/2000/svg" xmlns:xlink="http://www.w3.org/1999/xlink" style="display: block;"><g id="svgg"><path id="path0" d="M140.183 31.453 C 140.530 49.436,140.543 49.476,146.750 50.485 C 151.598 51.273,153.596 45.959,149.000 44.500 C 147.122 43.904,147.000 42.987,147.000 29.433 L 147.000 15.000 143.433 15.000 L 139.865 15.000 140.183 31.453 M225.000 32.500 L 225.000 50.000 227.962 50.000 L 230.925 50.000 231.212 40.772 C 231.496 31.661,231.536 31.531,234.309 30.558 C 238.259 29.172,238.966 30.789,238.985 41.250 L 239.000 50.000 243.113 50.000 L 247.227 50.000 246.834 39.388 C 246.347 26.230,244.308 23.428,235.817 24.244 L 231.000 24.706 231.000 19.853 C 231.000 15.127,230.921 15.000,228.000 15.000 L 225.000 15.000 225.000 32.500 M158.250 18.706 C 156.527 19.038,156.000 19.826,156.000 22.070 C 156.000 24.008,155.492 25.000,154.500 25.000 C 153.567 25.000,153.000 25.944,153.000 27.500 C 153.000 29.056,153.567 30.000,154.500 30.000 C 155.707 30.000,156.000 31.543,156.000 37.889 C 156.000 48.471,157.532 50.522,165.382 50.448 C 171.890 50.386,172.317 50.111,171.421 46.542 C 170.852 44.275,170.353 43.946,168.277 44.467 C 164.287 45.468,163.000 43.495,163.000 36.378 L 163.000 30.000 166.500 30.000 C 169.567 30.000,170.000 29.690,170.000 27.500 C 170.000 25.310,169.567 25.000,166.500 25.000 C 163.167 25.000,163.000 24.833,163.000 21.500 C 163.000 17.945,162.802 17.829,158.250 18.706 M96.011 24.892 C 86.121 27.645,86.925 47.944,97.014 50.205 C 100.806 51.054,108.771 50.378,110.969 49.019 C 113.029 47.746,109.494 42.594,107.176 43.492 C 99.894 46.310,96.454 44.337,96.600 37.427 C 96.728 31.325,98.760 29.619,104.836 30.511 C 108.971 31.119,111.840 29.625,111.968 26.797 C 112.060 24.778,101.114 23.472,96.011 24.892 M117.005 24.894 C 114.043 25.718,113.413 27.815,115.337 30.446 C 116.581 32.148,117.069 32.214,119.848 31.063 C 122.974 29.768,126.000 30.151,126.000 31.841 C 126.000 32.338,124.093 33.049,121.761 33.422 C 115.781 34.378,113.000 37.293,113.000 42.603 C 113.000 49.214,117.896 52.227,125.311 50.180 C 127.288 49.634,129.338 49.600,130.127 50.099 C 132.698 51.728,136.000 51.144,136.000 49.059 C 136.000 47.991,135.550 46.840,135.000 46.500 C 134.450 46.160,134.000 42.490,134.000 38.345 C 134.000 25.671,128.853 21.597,117.005 24.894 M178.788 25.090 C 171.430 27.942,169.510 40.312,175.423 46.765 C 180.884 52.723,196.751 51.727,194.390 45.573 C 193.834 44.125,192.981 43.907,189.835 44.410 C 184.560 45.254,181.717 44.368,180.344 41.454 L 179.188 39.000 188.094 39.000 L 197.000 39.000 197.000 34.656 C 197.000 26.393,187.841 21.582,178.788 25.090 M206.374 24.689 C 198.076 26.318,196.107 43.748,203.662 48.698 C 207.193 51.011,218.321 51.108,220.584 48.845 C 223.165 46.264,219.413 42.512,215.673 43.934 C 209.975 46.100,206.000 43.502,206.000 37.611 C 206.000 31.395,209.588 28.943,216.298 30.572 C 218.914 31.207,221.857 29.248,221.968 26.797 C 222.052 24.939,212.015 23.583,206.374 24.689 M66.035 29.934 C 65.466 30.998,65.000 37.801,65.000 45.051 L 65.000 58.233 62.750 57.458 C 39.869 49.579,16.000 69.929,16.000 97.315 C 16.000 124.548,36.218 140.952,60.789 133.655 C 63.877 132.738,66.190 132.499,66.537 133.060 C 67.324 134.333,79.650 134.257,82.066 132.965 C 84.999 131.395,85.100 32.306,82.171 29.655 C 79.355 27.106,67.438 27.312,66.035 29.934 M189.000 32.000 C 190.004 33.877,189.760 34.000,185.035 34.000 C 179.492 34.000,179.287 33.856,181.571 31.571 C 183.774 29.369,187.713 29.596,189.000 32.000 M127.000 40.300 C 127.000 43.070,125.262 45.000,122.769 45.000 C 119.842 45.000,119.353 41.943,121.944 39.844 C 125.039 37.338,127.000 37.515,127.000 40.300 M355.500 40.125 C 352.750 41.198,349.712 42.337,348.750 42.655 C 347.309 43.131,347.000 44.448,347.000 50.117 L 347.000 57.000 344.155 57.000 C 339.968 57.000,338.000 59.774,338.000 65.674 C 338.000 71.394,339.981 74.000,344.329 74.000 L 347.000 74.000 347.000 96.040 C 347.000 123.144,349.010 128.584,360.872 133.580 C 366.945 136.138,390.765 134.366,390.388 131.384 C 388.899 119.614,385.213 113.387,381.773 116.827 C 381.128 117.472,378.248 118.000,375.373 118.000 C 366.469 118.000,366.000 116.767,366.000 93.365 L 366.000 74.000 373.800 74.000 C 383.287 74.000,384.000 73.406,384.000 65.500 C 384.000 57.594,383.287 57.000,373.800 57.000 L 366.000 57.000 366.000 48.860 C 366.000 37.696,364.635 36.560,355.500 40.125 M125.000 54.750 C 125.000 55.163,122.300 56.363,119.000 57.418 C 115.700 58.472,113.000 59.709,113.000 60.167 C 113.000 60.625,112.357 61.000,111.571 61.000 C 108.864 61.000,97.000 74.757,97.000 77.896 C 97.000 78.334,96.242 80.212,95.316 82.069 C 86.190 100.362,98.531 130.250,118.241 137.590 C 131.787 142.634,153.637 140.588,155.809 134.072 C 156.006 133.482,156.803 133.000,157.580 133.000 C 167.318 133.000,182.170 94.198,176.643 83.200 C 175.896 81.715,174.992 78.960,174.634 77.079 C 173.434 70.783,163.125 59.516,157.735 58.611 C 157.056 58.497,155.517 57.863,154.316 57.202 C 153.114 56.541,151.427 56.000,150.566 56.000 C 149.705 56.000,149.000 55.550,149.000 55.000 C 149.000 54.389,144.333 54.000,137.000 54.000 C 130.400 54.000,125.000 54.338,125.000 54.750 M212.280 57.826 C 209.958 58.769,207.506 60.094,206.830 60.770 C 204.895 62.705,203.272 62.219,202.589 59.500 C 202.011 57.194,201.513 57.000,196.181 57.000 C 187.511 57.000,188.000 54.666,188.000 96.093 C 188.000 137.653,187.133 134.000,197.000 134.000 C 206.757 134.000,206.000 136.317,206.000 106.466 L 206.000 80.146 209.688 77.106 C 214.136 73.439,220.520 72.182,224.647 74.160 C 230.013 76.732,230.472 79.137,230.800 106.458 C 231.145 135.114,230.785 134.000,239.688 134.000 C 250.701 134.000,250.000 135.899,250.000 106.070 C 250.000 76.006,248.999 70.475,242.249 63.233 C 235.695 56.201,222.251 53.775,212.280 57.826 M146.887 57.662 C 147.224 58.123,149.946 59.336,152.935 60.357 C 158.209 62.159,164.121 65.623,164.866 67.347 C 165.067 67.813,166.545 69.690,168.150 71.518 C 173.529 77.644,175.984 92.102,171.500 91.245 C 168.410 90.654,167.897 93.899,170.954 94.698 C 173.479 95.359,172.842 99.208,168.861 107.353 C 167.287 110.572,166.000 113.797,166.000 114.519 C 166.000 116.921,163.798 116.614,160.775 113.790 C 157.358 110.598,156.000 110.280,156.000 112.671 C 156.000 114.853,158.875 117.993,160.905 118.027 C 162.661 118.057,156.290 123.926,154.450 123.973 C 153.873 123.988,152.874 124.526,152.232 125.168 C 148.107 129.293,142.181 129.042,140.727 124.681 C 140.537 124.112,139.828 123.988,139.150 124.407 C 138.473 124.826,138.168 125.955,138.474 126.917 C 139.113 128.931,135.752 130.781,132.430 130.243 C 130.756 129.972,130.443 129.343,130.793 126.954 C 131.411 122.748,128.182 122.842,127.339 127.055 C 126.880 129.352,126.328 129.951,125.114 129.470 C 124.226 129.118,121.925 128.577,120.000 128.268 C 108.319 126.395,89.339 103.000,99.500 103.000 C 103.004 103.000,102.759 100.102,99.194 99.389 C 95.962 98.742,95.570 88.667,98.552 82.900 C 99.348 81.360,100.000 79.622,100.000 79.038 C 100.000 77.616,106.299 68.041,107.250 68.018 C 107.662 68.008,108.868 67.213,109.928 66.250 C 113.712 62.816,114.934 62.000,116.291 62.000 C 117.048 62.000,117.971 61.695,118.343 61.323 C 121.202 58.464,145.219 55.384,146.887 57.662 M265.250 58.496 C 263.424 60.570,263.518 109.600,265.361 116.523 C 268.690 129.023,276.739 135.000,290.240 135.000 C 296.282 135.000,306.000 132.463,306.000 130.885 C 306.000 129.242,308.510 129.985,309.768 132.000 C 310.811 133.670,312.100 134.000,317.574 134.000 C 328.922 134.000,328.000 137.377,328.000 95.825 C 328.000 54.189,328.750 57.084,317.950 57.032 C 308.573 56.986,309.005 55.669,308.967 84.450 C 308.930 112.020,309.153 110.963,302.346 115.772 C 297.614 119.114,289.382 118.894,286.000 115.334 L 283.500 112.702 283.189 86.218 C 282.945 65.478,282.581 59.438,281.510 58.367 C 279.609 56.466,266.949 56.566,265.250 58.496 M132.146 61.345 C 130.229 63.385,129.971 67.000,131.742 67.000 C 132.851 67.000,137.000 61.830,137.000 60.448 C 137.000 58.268,134.625 58.706,132.146 61.345 M147.000 64.965 C 147.000 66.209,149.648 67.581,153.750 68.461 C 156.546 69.061,157.000 68.886,157.000 67.204 C 157.000 65.815,156.096 65.069,153.875 64.625 C 149.412 63.732,147.000 63.852,147.000 64.965 M119.430 67.421 C 118.551 70.926,119.268 73.428,121.261 73.812 C 122.600 74.070,123.000 73.458,123.000 71.155 C 123.000 65.307,120.593 62.789,119.430 67.421 M138.000 69.000 C 138.000 70.556,138.667 71.000,141.000 71.000 C 144.574 71.000,145.123 68.534,141.750 67.630 C 138.335 66.715,138.000 66.838,138.000 69.000 M111.345 73.829 C 112.255 74.835,113.000 76.185,113.000 76.829 C 113.000 77.473,113.900 78.000,115.000 78.000 C 117.499 78.000,117.584 75.838,115.171 73.655 C 112.438 71.181,109.087 71.334,111.345 73.829 M59.603 74.039 C 64.665 75.964,64.934 77.101,64.968 96.724 L 65.000 114.949 62.050 116.474 C 55.233 119.999,44.690 117.806,40.229 111.935 C 31.706 100.719,37.632 76.004,49.399 73.686 C 53.444 72.889,56.893 73.009,59.603 74.039 M140.000 75.804 C 140.000 77.681,143.079 80.000,145.571 80.000 C 148.109 80.000,148.500 79.336,147.185 77.265 C 146.156 75.645,140.000 74.393,140.000 75.804 M106.039 79.189 C 104.918 80.392,104.000 81.953,104.000 82.657 C 104.000 83.439,103.354 83.689,102.341 83.301 C 100.932 82.760,100.782 83.159,101.341 85.957 C 101.704 87.768,102.000 89.644,102.000 90.125 C 102.000 90.606,102.950 91.000,104.111 91.000 C 105.983 91.000,106.148 90.602,105.566 87.500 C 105.056 84.783,105.240 84.000,106.387 84.000 C 107.200 84.000,108.151 83.100,108.500 82.000 C 108.849 80.900,109.554 80.000,110.067 80.000 C 110.580 80.000,111.000 79.325,111.000 78.500 C 111.000 76.306,108.386 76.669,106.039 79.189 M158.000 78.986 C 158.000 80.604,165.826 85.281,167.475 84.648 C 169.887 83.722,169.279 82.362,165.443 80.099 C 161.687 77.883,158.000 77.332,158.000 78.986 M120.750 81.217 C 118.616 83.888,118.468 87.000,120.474 87.000 C 122.183 87.000,125.371 81.409,124.482 79.971 C 123.576 78.505,122.677 78.805,120.750 81.217 M132.500 80.736 C 120.093 81.974,118.681 101.961,130.997 102.015 C 133.078 102.024,133.999 102.349,133.265 102.815 C 131.393 104.004,130.312 110.396,132.083 109.806 C 132.846 109.551,133.857 107.994,134.330 106.344 C 135.037 103.880,135.929 103.180,139.327 102.422 C 143.862 101.411,147.796 94.306,146.556 89.367 C 145.832 86.482,139.673 79.950,137.882 80.168 C 137.122 80.261,134.700 80.516,132.500 80.736 M150.836 87.724 C 148.611 92.794,150.204 94.434,153.560 90.528 C 156.241 87.409,156.423 84.705,153.985 84.236 C 153.076 84.061,151.845 85.424,150.836 87.724 M109.241 92.986 C 107.758 95.361,107.618 98.000,108.974 98.000 C 109.843 98.000,113.000 92.942,113.000 91.550 C 113.000 90.186,110.359 91.195,109.241 92.986 M139.777 93.557 C 144.706 97.009,141.073 99.972,132.821 99.230 C 126.594 98.671,125.565 95.994,130.500 93.195 C 133.333 91.589,137.182 91.739,139.777 93.557 M158.574 93.667 C 158.222 94.584,158.399 95.799,158.967 96.367 C 159.535 96.935,160.000 98.210,160.000 99.200 C 160.000 100.190,160.675 101.000,161.500 101.000 C 163.282 101.000,163.391 99.420,161.902 95.149 C 160.684 91.654,159.542 91.145,158.574 93.667 M113.032 98.250 C 113.076 100.001,115.493 103.000,116.860 103.000 C 118.610 103.000,118.214 100.504,116.171 98.655 C 113.989 96.680,112.989 96.551,113.032 98.250 M150.566 99.893 C 149.439 101.717,152.720 109.000,154.669 109.000 C 156.511 109.000,156.363 104.077,154.500 103.362 C 153.675 103.045,153.000 102.186,153.000 101.452 C 153.000 99.752,151.319 98.675,150.566 99.893 M142.752 102.898 C 139.336 104.889,139.189 107.000,142.465 107.000 C 143.948 107.000,145.379 106.161,146.057 104.893 C 147.628 101.957,146.024 100.989,142.752 102.898 M106.630 105.250 C 105.647 108.919,105.907 110.751,107.500 111.362 C 108.695 111.820,109.000 111.030,109.000 107.469 C 109.000 102.741,107.643 101.470,106.630 105.250 M119.250 105.706 C 116.767 106.184,116.255 107.777,118.328 108.572 C 120.057 109.236,125.000 107.348,125.000 106.025 C 125.000 104.994,123.406 104.905,119.250 105.706 M158.000 106.989 C 158.000 108.719,161.380 112.000,163.163 112.000 C 166.153 112.000,166.127 110.227,163.107 108.076 C 159.956 105.832,158.000 105.416,158.000 106.989 M121.035 112.934 C 119.409 115.972,119.796 118.000,122.000 118.000 C 123.619 118.000,124.000 117.333,124.000 114.500 C 124.000 110.647,122.643 109.930,121.035 112.934 M145.533 114.937 C 143.914 118.067,144.382 121.000,146.500 121.000 C 148.083 121.000,149.000 118.769,149.000 114.918 C 149.000 111.179,147.472 111.187,145.533 114.937 M131.000 116.094 C 131.000 116.695,131.869 117.414,132.931 117.692 C 133.993 117.970,135.104 118.828,135.399 119.599 C 136.072 121.352,139.000 121.452,139.000 119.722 C 139.000 117.888,135.324 115.000,132.989 115.000 C 131.895 115.000,131.000 115.492,131.000 116.094 M110.000 119.500 C 110.000 120.583,111.111 121.000,114.000 121.000 C 116.889 121.000,118.000 120.583,118.000 119.500 C 118.000 118.417,116.889 118.000,114.000 118.000 C 111.111 118.000,110.000 118.417,110.000 119.500 " stroke="none" fill="#db6911" fill-rule="evenodd"></path></g></svg>

