<?xml version="1.0" standalone="no"?>
<!DOCTYPE svg PUBLIC "-//W3C//DTD SVG 20010904//EN"
 "http://www.w3.org/TR/2001/REC-SVG-20010904/DTD/svg10.dtd">
<svg version="1.0" xmlns="http://www.w3.org/2000/svg"
 width="4000.000000pt" height="1917.000000pt" viewBox="0 0 4000.000000 1917.000000"
 preserveAspectRatio="xMidYMid meet">
<metadata>
Created by potrace 1.15, written by Peter Selinger 2001-2017
</metadata>
<g transform="translate(0.000000,1917.000000) scale(0.100000,-0.100000)"
fill="#000000" stroke="none">
<path d="M6785 11635 c0 -1419 1 -1998 2 -1287 2 712 2 1873 0 2580 -1 708 -2
126 -2 -1293z"/>
<path d="M20095 12505 c0 -693 1 -975 2 -627 2 349 2 916 0 1260 -1 345 -2 60
-2 -633z"/>
<path d="M13861 9411 c-19 -12 -19 -60 -2 -171 13 -87 30 -120 62 -120 36 0
41 33 24 148 -9 59 -20 117 -25 130 -10 23 -35 28 -59 13z"/>
<path d="M12598 9229 c-10 -5 -18 -19 -18 -29 0 -31 70 -239 86 -255 31 -30
64 -10 64 40 0 42 -66 227 -87 243 -20 14 -23 14 -45 1z"/>
<path d="M31235 7465 c0 -940 1 -1324 2 -852 2 472 2 1242 0 1710 -1 469 -2
83 -2 -858z"/>
<path d="M15841 8785 c-61 -35 -225 -150 -240 -169 -7 -8 -11 -25 -9 -38 2
-17 10 -24 33 -26 24 -2 53 14 145 78 63 45 128 88 143 96 23 13 28 21 25 47
-4 42 -37 46 -97 12z"/>
<path d="M12638 8443 c-46 -50 -88 -116 -88 -138 0 -25 18 -45 41 -45 18 0
139 145 139 166 0 51 -51 60 -92 17z"/>
<path d="M11402 8278 c-24 -24 -12 -55 42 -107 56 -52 84 -62 106 -36 20 24 3
60 -51 109 -52 47 -76 55 -97 34z"/>
<path d="M15782 7997 c-7 -8 -20 -44 -29 -81 -20 -83 -11 -119 30 -124 23 -3
30 2 42 32 8 19 16 68 17 108 3 72 3 73 -23 76 -14 2 -31 -3 -37 -11z"/>
<path d="M12651 7821 c-41 -41 -54 -156 -22 -185 32 -29 56 -7 75 71 21 88 20
110 -3 123 -26 13 -28 13 -50 -9z"/>
<path d="M16520 7628 c-75 -47 -85 -57 -88 -85 -3 -27 1 -33 22 -39 19 -4 43
5 99 40 89 55 110 77 105 108 -6 41 -45 34 -138 -24z"/>
<path d="M12111 7606 c-10 -12 -8 -34 8 -103 11 -48 23 -105 26 -126 8 -50 38
-81 65 -67 11 6 23 22 26 35 8 31 -31 220 -51 252 -17 26 -56 31 -74 9z"/>
<path d="M16876 7364 c-23 -23 -20 -40 27 -134 39 -78 44 -85 72 -85 26 0 30
4 33 29 2 17 -9 57 -29 100 -48 106 -69 124 -103 90z"/>
<path d="M12515 7239 c-74 -71 -96 -112 -72 -136 26 -26 66 -7 134 65 62 66
75 96 51 120 -23 23 -50 11 -113 -49z"/>
<path d="M10806 7125 c-55 -30 -110 -64 -123 -76 -28 -27 -30 -65 -3 -79 16
-9 34 -2 102 38 46 27 103 60 128 73 35 19 46 31 48 53 4 29 -10 46 -38 46 -8
0 -60 -25 -114 -55z"/>
<path d="M16822 6888 c-19 -19 -14 -44 19 -111 49 -96 66 -117 99 -117 48 0
48 31 0 123 -23 45 -49 90 -58 100 -18 20 -43 22 -60 5z"/>
<path d="M10785 6236 c-31 -31 -105 -181 -105 -212 0 -29 24 -48 52 -40 17 4
36 34 77 120 29 63 50 119 47 125 -4 6 -16 16 -27 21 -15 9 -24 6 -44 -14z"/>
<path d="M11943 6206 c-51 -24 -69 -49 -57 -79 10 -28 34 -27 102 1 70 29 88
55 62 88 -18 20 -47 17 -107 -10z"/>
<path d="M11213 6093 c-7 -2 -13 -17 -13 -33 0 -21 11 -38 43 -65 47 -41 173
-119 259 -161 49 -24 61 -26 83 -16 20 9 26 18 23 38 -2 22 -17 34 -84 69 -44
22 -120 69 -170 102 -90 62 -119 75 -141 66z"/>
<path d="M16420 5999 c-133 -95 -149 -116 -118 -147 24 -24 56 -11 156 63 107
78 122 97 105 124 -20 33 -56 23 -143 -40z"/>
<path d="M15870 5820 c-24 -24 -24 -25 -5 -114 16 -76 36 -106 71 -106 41 0
41 39 -2 207 -2 6 -12 17 -23 23 -17 8 -24 7 -41 -10z"/>
<path d="M12046 5794 c-30 -29 -17 -56 37 -79 69 -29 137 -16 137 26 0 25 -23
39 -87 54 -73 18 -69 18 -87 -1z"/>
<path d="M11646 5591 c-26 -29 -46 -106 -53 -206 -5 -87 -5 -92 20 -120 24
-29 26 -29 45 -12 15 14 21 37 26 110 4 51 13 119 20 150 11 48 11 60 -1 77
-18 25 -35 25 -57 1z"/>
<path d="M16527 5411 c-83 -34 -91 -42 -83 -77 7 -25 9 -26 56 -21 62 7 148
44 161 69 6 10 7 28 4 38 -9 28 -54 25 -138 -9z"/>
<path d="M10894 5309 c-25 -27 -11 -47 52 -78 135 -66 194 -71 194 -16 0 28
-31 47 -145 90 -81 30 -77 30 -101 4z"/>
<path d="M12592 5108 c-7 -7 -12 -18 -12 -25 0 -35 82 -153 121 -173 26 -14
59 4 59 32 0 12 -17 44 -38 72 -21 28 -45 63 -55 79 -19 29 -54 36 -75 15z"/>
<path d="M11695 4927 c-28 -21 -14 -54 62 -140 66 -75 97 -95 128 -83 35 13
16 56 -66 146 -44 50 -86 90 -93 90 -7 0 -20 -6 -31 -13z"/>
<path d="M16093 4658 c-28 -30 -133 -269 -133 -302 0 -33 34 -53 57 -34 17 13
109 201 134 270 10 29 10 43 1 63 -14 31 -32 32 -59 3z"/>
<path d="M14378 4473 c-34 -8 -30 -42 17 -166 26 -67 52 -128 57 -134 13 -16
50 -17 66 -1 19 19 13 46 -36 167 -47 113 -69 142 -104 134z"/>
<path d="M15097 4433 c-28 -27 26 -98 95 -127 53 -23 125 -21 137 2 13 23 -12
62 -38 62 -23 0 -77 23 -116 50 -30 20 -66 26 -78 13z"/>
<path d="M11745 4257 c-79 -28 -90 -35 -93 -58 -5 -45 19 -54 96 -35 127 31
184 73 152 111 -18 22 -54 17 -155 -18z"/>
<path d="M13144 4253 c-6 -22 0 -33 44 -75 54 -51 94 -62 110 -30 14 25 0 53
-47 95 -52 47 -97 51 -107 10z"/>
<path d="M15039 3996 c-23 -49 74 -206 136 -222 40 -10 62 15 46 54 -7 17 -24
41 -38 54 -14 12 -38 49 -54 81 -24 46 -34 57 -54 57 -17 0 -29 -8 -36 -24z"/>
<path d="M12324 3641 c-103 -49 -122 -68 -104 -102 16 -29 50 -23 164 30 107
50 132 75 106 106 -21 25 -60 16 -166 -34z"/>
<path d="M13155 3526 c-120 -37 -125 -40 -125 -72 0 -32 31 -44 85 -32 110 24
175 49 195 76 l21 27 -21 17 c-28 23 -35 22 -155 -16z"/>
<path d="M23788 2923 c215 -2 569 -2 785 0 215 1 39 2 -393 2 -432 0 -608 -1
-392 -2z"/>
</g>
</svg>
